<?xml version="1.0" encoding="utf-8"?>
<!-- Generator: Adobe Illustrator 24.1.2, SVG Export Plug-In . SVG Version: 6.00 Build 0)  -->
<svg version="1.1" id="Ebene_1" xmlns="http://www.w3.org/2000/svg" xmlns:xlink="http://www.w3.org/1999/xlink" x="0px" y="0px"
	 viewBox="0 0 149.5 213.2" style="enable-background:new 0 0 149.5 213.2;" xml:space="preserve">
<g>
	<path d="M128.8,197c-2.8-0.2-3.9,2.4-6,3.1c-0.3-0.2-0.7-0.7-1-0.7c-2.1,0.3-4.2,0.9-6.2,1.2c-0.7,0.1-1.5-0.1-2.6-0.2
		c-1,2.4-3.1,0.4-5.2,0.2c0.2,0.6,0.3,1,0.4,1.5c-1.5-0.2-3.1-0.9-4.3-0.6c-2.8,0.7-4.9-1.4-7.3-1.4c-2.8-0.1-4.3-2.1-6.7-2.8
		c0,0.4,0,0.7,0,1.2c-2.4-0.4-4.7-0.7-7.2-1.1c0.2,0.6,0.3,1,0.6,2c-2.2-2-4-3.7-6-5.5c-0.1,0.6-0.2,1-0.3,1.7
		c-1.6-2.5-3.1-4.8-4.9-7.4c-0.2,0.9-0.3,1.5-0.5,2.6c-0.9-2.2-1.6-4-2.4-5.9c-0.6,0.4-1.1,0.7-1.7,1.2c-1.3-2.4-2.6-4.8-4-7.4
		c-0.2,1-0.4,1.7-0.7,2.8c-1.2-2.9-2.3-5.4-3.5-8.1c-0.4,0.5-0.8,1-1.2,1.5c-1.1-2.2-2.1-4.2-3.4-6.7c-0.2,1.1-0.4,1.7-0.6,2.6
		c-1.1-2.7-2-5.3-3.1-8.1c-0.3,0.5-0.4,0.7-0.7,1.1c-1.2-3.2-2.3-6.3-3.5-9.4c-0.1,0-0.2,0-0.3,0c0,1,0,2.1,0,3.1
		c-0.1,0-0.2,0.1-0.3,0.1c-0.9-1.5-1.8-2.9-2.8-4.5c-0.4,0.3-0.7,0.6-1.1,0.9c-0.2-0.2-0.3-0.3-0.3-0.5c-2.8-8.2-5.5-16.4-8.4-24.5
		c-0.7-2-1.7-3.9-2.6-5.8c-2.3-5-5.9-5-10.1-2.4c-1.3-3.6-2.7-7.1-3.8-10.7c-2.2-7.8-4.5-15.6-6.4-23.6C9.6,81.4,10,76,11.3,70.8
		c0.3-1.2,0.1-2-0.5-3.1c-1-2-1.6-4.2-1.9-6.4C7.8,54.7,7.6,48,8.6,41.3c0-0.2,0-0.5,0.1-0.7c0.4-0.7,0.8-1.3,1.2-2
		c0.5,0.5,1,1,1.5,1.5c0.2,0.3,0.4,0.6,0.6,0.9c1.6,2.2,2.8,2.5,4.7,0.5c2.3-2.5,4.3-5.3,6.2-8.2c2.4-3.7,4.4-7.6,6.7-11.9
		c0,0.7,0.1,1.1,0.1,1.5c0,3.1,1.3,4.4,4.4,4c4.4-0.5,8.1-2.8,11.8-5c3.4-2,6.6-4.3,10-6.5c-0.2,0.6-0.4,1.1-0.5,1.6
		c-1.3,3.4-0.3,5,3.4,4.6c2.2-0.2,4.3-1,6.4-1.8c1.3-0.4,2.4-1.3,3.6-1.9c1.2-0.6,2.3-1.2,3.5-1.9c1.5,1.2,2.8,2.6,4.4,3.7
		c2.4,1.8,3.6,1.5,5.3-1c0.9-1.2,1.9-2.4,3.2-3.9c0,1.8,0,3.2,0,4.5c2.5-0.2,7.6-2.9,11-5.8c0.1,0.9,0.2,1.8,0.4,3.2
		c1.5-2.9,2.7-5.5,5.9-5.8c2.9-0.3,5.5,0.7,8.3,2.8c-2.1-0.6-3.6-1.1-5.2-1.4c-2.7-0.6-3.9,0.4-3.7,3.1c0.2,1.8,0.7,3.7,1.4,5.4
		c0.9,2.2,1.9,2.4,3.6,0.7c1.5-1.5,2.9-3.2,4.5-5.1c0.8,3.1,3,5.9,1.1,9.5c2,2.2,6,3.8,4.2,8.3c3-0.4,4-1.6,4.2-4.6
		c0-0.7,0.4-1.3,0.7-2c0.6,0.4,1.3,0.7,1.7,1.3c1.7,2.7,2.2,5.5,0.7,8.5c-1,2-1.9,4-3,6.5c3.6,1.2,6.9,2.5,10.3,3.5
		c1.2,0.4,2.2,0.1,2.5-1.6c0.3-1.3,1.1-2.6,1.7-3.9c0.2,0,0.3,0.1,0.5,0.1c-0.5,2.5-1.1,5.1-1.5,7.6c-0.5,3.3-1.7,6.2-4.7,8
		c-0.6,0.4-1.1,1-1.6,1.5c1.1,2.9,2.2,4,4.2,3.9c-0.6,1.9-1.1,3.7-1.9,5.5c-0.9,2-1.1,3.9-0.1,5.9c0.2,0.5,0.4,1.1,0.6,1.7
		c-0.4,0.1-0.8,0.1-1.3,0.2c0.4,0.8,0.6,1.5,1,2.1c1.5,3.1,2.3,6.2,1.6,9.7c-0.4,1.7-0.1,3.6-0.1,5.3c-1.5-1.6-3.1-3.3-4.7-5.1
		c-4.1-4.7-9.4-6.2-15.5-5.9c-3.1,0.2-3.4-0.3-2.6-3.3c0.1-0.3,0.2-0.6,0.3-0.9c0.8-2.3,0.8-2.4,3.2-1.6c3.1,1,6.2,2.1,9.3,3.3
		c3,1.2,5.7,2.8,7.8,5.5c-0.4-1.1-0.7-2.2-1.1-3.2c-1.6-4.2-3.2-8.3-4.8-12.5c-1.5-4-4-7.2-7.4-9.6c-3.7-2.7-7.6-5.2-11.3-8
		c-1.8-1.4-3.5-1.5-5.6-0.8c-0.7,0.2-1.6,0.5-2.2,0.3c-4.2-1.5-8.9-0.2-12.8-2.6c-0.3-0.2-0.7-0.2-1-0.1c-1.9,0.6-3.7,1.6-5.6,1.9
		c-1.9,0.3-4-0.1-5.8,0.2c-0.5,0.4-1,0.9-1.6,1.1c-5,1.6-10.2,2.7-14.8,5.6c-4.2,2.6-7.6,5.7-7.5,11.1c0,2.4,0.4,4.7,0.7,7.1
		c0,0.4,0.1,0.9,0.1,1.3c0.1,2.5,0.1,4.9-1.4,7.3c-2.5,4-4.8,8.2-6.7,12.5c-1,2.2-1.8,4.9-1.7,7.3c0.4,7,1.2,13.9,1.9,20.8
		c0.1,1-0.1,2.1-0.2,3.2c0,0.2,0,0.5,0.1,0.7c1.1,3.7,2.2,7.4,3.4,11c0.3,1,1,1.9,1.8,3.2c0.8-0.9,1.3-1.6,2-2.5
		c0.2,0.8,0.3,1.5,0.4,2.3c0.7-0.4,1.4-0.8,1.9-1.1c0.8,1.1,1.5,2,2.6,3.4c0,0.5-0.1,1.4-0.1,2c1.3,1.2,2.3,2.3,3.4,3.4
		c0.4-0.4,1-0.9,1.7-1.5c0.3,0.5,0.5,1,0.7,1.5c2.3-0.6,4.5-1.1,6.7-1.6c0-0.1-0.1-0.2-0.1-0.3c1.4,0.1,2.8,0.2,4.6,0.3
		c0.2,0.6,0.6,1.6,1.1,2.8c0.5-0.1,1.1-0.2,1.6-0.3c0.4,1,0.7,1.9,1,2.9c2.4-2.1,2.5-2.2,1.4-5c-1.5-3.9-0.7-7.7,1.2-11.1
		c2.2-4,4.6-7.9,7.1-11.8c1.9-3,4-5.9,5.1-9.5c1.1-3.8,3.2-7.1,6.6-9.5c-0.7,1-1.3,2-2,3c-1.8,2.3-2.4,4.8-1.3,7.5
		c0.5,1.3,0.1,2.2-0.5,3.3c-1.7,3.3-3.3,6.6-4.9,9.9c-0.3,0.6-0.5,1.3-0.8,2.3c1.6-1.7,2.9-3.2,4.3-4.6c0.5-0.5,1.4-0.7,2.2-1
		c2.2-0.8,2.8-2.1,1.7-4.2c-0.3-0.6-0.5-1.3-0.6-1.7c1.4,0.1,2.7,0.4,4,0.2c1.2-0.2,1.5-1,0.7-2.2c-1.3-1.8-0.9-2.5,1.3-3
		c1.6-0.3,3.2-0.7,4.8-1c0.6-0.1,1.3,0,1.8,0.2c0.4,0.2,0.9,0.9,0.9,1.3c0,0.4-0.6,0.8-1.1,1c-0.7,0.3-1.5,0.4-2.3,0.7
		c-0.5,0.2-1,0.5-1.4,1c3.4,1.3,6.8,2.4,10.1,0c0.6-0.4,0.9-1.3,1.2-2c0.4-1,0.5-2.7,1.1-2.9c1.2-0.4,2.6,0,4,0.2
		c0.2,0,0.4,1.2,0.2,1.6c-0.2,0.5-0.9,0.8-1.4,1.2c-1.4,1.1-1.4,3,0.2,3.6c1.2,0.5,2.5,0.5,3.7,1c0.8,0.4,1.3,1.3,2.1,1.8
		c0.8,0.5,1.7,0.8,2.5,1.2c0.2-0.2,0.3-0.5,0.5-0.7c-1-1.2-2-2.4-3.1-3.5c-1.7-1.6-2.8-3.3-1.7-5.7c0.4-1,0.5-2.1,0.9-3.3
		c0,3,2.4,4.4,4.1,6.2c4,4.4,7,9.4,8.1,15.1c0.8,3.7,0,7.8-0.1,11.7c0,0.6-0.3,1.2-0.1,2c2-2.2,4-4.5,6-6.7c1.3,1.6,1.7,3.3,1.3,5.6
		c-1.1,6.4-2.7,12.7-2.2,19.3c0.2,2,0.4,4.2-0.3,6c-0.8,2.2,0,4.4-0.8,6.3c-0.8,1.9-0.3,3.6-0.6,5.4c-0.3,1.5-0.4,3.9-1.4,4.4
		c-1.6,0.8-0.8,2.2-1.6,3.1c-0.9,0.9-1.5,2.1-2.4,3C131,195.2,129.7,196.2,128.8,197z M120.3,185.2c0-0.1-0.1-0.1-0.1-0.2
		c1.8-0.4,3.7-0.7,5.5-1.2c1.7-0.4,2.9-1.9,3.8-3c1.1-1.4,2.7-3,2.4-5.3c-0.1-0.4,0.2-0.9,0.2-1.3c0.1-2.4,0.1-4.8,0.3-7.2
		c0.2-2.5-2.8-3.8-2.1-6.4c0-0.1-0.1-0.2-0.2-0.2c-1.7,0.2-1.1-1.1-1.1-1.8c-0.5-3.8-0.8-7.5-1.2-11.3c-1.4,2.7-2.7,5.5-3.5,8.3
		c-0.8,2.6-2,4.5-4.8,5c-0.1,0-0.2,0.2-0.1,0.1c0,1.7,0,3.3,0,4.9c-0.5-0.1-0.8-0.2-1.6-0.5c1,1.7,1.7,2.9,2.5,4.4
		c-0.7,0.2-1.5,0.5-2.4,0.9c-0.1,0.5-0.3,1.1-0.5,1.9c-0.5-0.4-0.9-0.7-1.1-1c-0.5,0.4-0.9,0.7-1.4,1.1c0.2,0.6,0.5,1.3,0.9,2.4
		c-1.4-1.2-2.3-2.1-3.3-2.9c-0.4,0.4-0.7,0.8-1,1.2c-0.6-0.3-1.2-0.6-1.7-0.8c-0.2,0.7-0.4,1.2-0.7,2.3c-0.9-1.2-1.6-2.1-2.2-2.9
		c-0.9,0.5-1.6,0.9-2.3,1.3c-0.1-2.3-0.3-4.4-0.4-6.9c-0.4,0.6-0.6,0.9-0.8,1.1c-0.1,0-0.3,0-0.4-0.1c0-1.6,0-3.3,0-4.9
		c-1.7-0.2-3.1-0.3-4.6-0.5c-6.1-0.9-11.4-2.8-13.3-9.6c-0.1-0.5-0.3-1-0.6-1.4c-1.3-2-0.7-3.7,0.7-5.2c2.1-2.3,4.2-4.6,6.4-7
		c-0.2,0.1-0.5,0.1-0.6,0.2c-2.6,2-5.4,3.8-7.8,6.1c-1.2,1.2-2.4,3.2-2.3,4.8c0.2,3.7,1.2,7.4,1.8,11c0.1,0.3,0.3,0.8,0.4,0.8
		c1.5-0.4,1.2,1,1.4,1.6c0.8,2.2,1.4,4.4,2.1,6.6c0.1,0.2,0.5,0.4,1.3,0.8c1.3,2.6,2.9,5.7,4.5,8.9c0,0.1,0.2,0.1,0.3,0.2
		c0.3-0.3,0.6-0.7,1-1.1c1,1.9,1.8,3.7,2.9,5.8c0.2-1.1,0.2-1.6,0.4-2.5c0.8,1,1.5,1.8,2.1,2.6c1.7-2.2,2.8,0.9,4.3,0.4
		c-0.1-0.4-0.2-0.8-0.4-1.5c2.1,1.6,3.8,2.9,5.6,4.3c0.1-0.5,0.2-0.8,0.3-1.3c1.1,1,2,1.8,2.7,2.4c1.3-0.6,2.5-1.1,3.6-1.5
		c0.6-0.2,1.2-0.2,1.8-0.4c0.5-0.2,1-0.5,1.6-0.7C119,185.8,119.7,185.5,120.3,185.2z M92.3,144.6c-0.7,0.1-1.9,0.7-3,0.5
		c-1.8-0.4-2,0.9-2.3,1.9c-0.3,1.1,0.9,2.5,2.1,2.4c2.3-0.2,4.6-0.5,7-0.8c0.2-0.5,0.4-1.1,0.5-1.4c3.1,0.2,5.1-2.5,8-2.2
		c0.6,0.1,1.2-0.3,1.9-0.4c1.5-0.3,3.4,0.8,4.4-1.3c1.3,1.4,2.9,1.6,4.6,1.2c3.6-0.9,3.6-0.8,4.6,2.7c0,0.1,0.2,0.1,0.4,0.3
		c1.7-2.6,2.1-5.6,2-8.6c0-0.8-0.7-1.8-1.4-2.3c-3-2-6.2-0.3-9.2,0c-0.9,0.1-1.6,0-2.3-0.2c-1.5-0.6-2.8-0.6-3.6,1
		c-0.3,0.5-0.6,0.9-1,1.5c-1.7-1.4-3.3-1.5-4.6,0.4c-0.2,0.3-0.9,0.4-1.3,0.3c-1.6-0.4-3-0.7-3.2,1.6c0,0.2-0.2,0.4-0.4,0.6
		C94.5,142.5,93.6,143.4,92.3,144.6z M102.9,156.2c-3.1-0.4-3.1-0.3-3.5,3.1c7.3,0.9,17.3-0.6,20.4-3c-1.7-3-2.6-3.2-5.7-2.4
		c-2.8,0.7-5.6,1.7-8.7,0.6C104.1,153.8,102.9,154.4,102.9,156.2z"/>
	<path d="M70.7,104.7c7.1,1.8,13.3,1.4,17.5-5.9c-3.1,0.4-5.9,0.6-8.5,1.2c-4.4,1.1-8.7,2.3-13,3.8c-3.1,1-5.1,3.5-6.7,6.2
		c-0.4,0.8-0.9,1.5-1.4,2.2c1.1-3.2,1.6-6.8,5-8.6c1.2-0.6,1.7-1.6,2.1-2.9c0.6-2.3,2-4.1,4.1-5.4c5.1-3.1,10.4-3.8,16-1.3
		c1.3,0.6,2.7,1,4.1,1.4c0.1-0.2,0.2-0.4,0.3-0.6c-1.3-0.8-2.5-1.6-3.8-2.4c-1.3-0.9-3.1-1.5-2.4-3.7c0.5-1.3,2-1.6,4.5-1.2
		c3.8,0.6,6.2,2.6,7.2,6.3c0.3,1.1,0.5,2-0.7,2.7c-0.6,0.4-1.1,1-1.5,1.6c-2.1,3.6-5.3,6-8.7,8.1C80.5,108.9,75.1,108.3,70.7,104.7z
		 M86.7,97.1c-4.3-2.4-8.5-4-13.3-1.5c-5.3,2.8-6.1,3.3-6.1,5.6C73.6,98.6,80,97.2,86.7,97.1z"/>
	<path d="M58.7,92.8c1-5.8,4.2-9.9,9.4-12.6c4.9-2.5,10-2.7,15.3-2.1c1.3,0.1,4,2.5,4.3,3.8c0.4,1.6-0.7,2.7-2.5,2.5
		c-3.2-0.3-6.4-0.7-9.7-0.9c-0.8-0.1-1.7,0-2.5,0.2c-0.8,0.2-1.5,0.5-2.3,0.7c-4.4,1.3-8.4,3.2-10.9,7.3
		C59.6,92.1,59.1,92.4,58.7,92.8z"/>
	<path d="M52.4,92c1.4-8.7,9-22.2,21.7-24.6c6-1.2,12.1-1.7,18.2-1.7c6.6,0,13.3,0.7,19.9,1.4c3,0.3,5.6,1.9,7.5,4.5
		c-0.5-0.4-1-0.9-1.6-1.1c-2.5-0.9-5-2.2-7.5-2.4C99,66.9,87.6,67.3,76.2,69c-7.1,1.1-12.7,4.9-16.7,10.7
		C56.6,83.8,54.5,88.4,52.4,92z"/>
	<path d="M129.3,102.6c-6.1,3.4-13.7,2.1-18-2.6c-2-2.3-4.2-4.5-6.1-6.9c-0.7-0.9-1-2.2-1.5-3.4c0.3-0.1,0.5-0.3,0.8-0.4
		c1.3,1.8,2.5,3.7,3.8,5.5c1.2-0.9,2.3-1.9,3.5-2.6c4.5-2.7,9.7-2.1,13.4,1.5c1.7,1.6,3.2,3.4,4.7,5.2c-6-2.9-12.2-1.5-18.5-1.1
		c1.8,4,5.2,4.3,8.3,4.7C122.8,102.9,125.9,102.6,129.3,102.6z M125.6,96.1c-1.7-2.7-5.3-4.2-8.7-3.9c-2.5,0.2-4.5,1.1-5.9,4
		C116,94.5,120.7,95.2,125.6,96.1z"/>
	<path d="M38.3,157.7c-1.5,0.1-3,0.5-4.4,0.2c-3.2-0.5-5.8-1.6-6.8-5.4c-0.5-1.8-2.2-3.3-3.6-4.9c-1-1.2-1.7-2.4-1.5-4
		c0.1-0.6,0-1.5-0.4-1.9c-3.2-3.6-2.2-7.6-1.5-11.7c0.5-3.1,1.7-5.8,4.5-7.4c0.8-0.5,1.8-0.6,2.8-0.7c0.1,0,0.5,1,0.4,1
		c-0.7,0.6-1.5,1-2.2,1.5c-0.6,0.5-1.4,1.1-1.5,1.7c-1.2,4.5-2.3,8.8-1.5,13.7c0.7,4.1,2,7.3,5.4,9.6c0.4,0.3,0.7,1.2,0.6,1.8
		c-0.5,1.9,0.5,3.1,2.1,3.7c2,0.7,4.1,1.2,6.2,1.8c0.5,0.1,0.9,0.2,1.4,0.3C38.3,157.2,38.3,157.4,38.3,157.7z"/>
	<path d="M56.9,71c1.8-2,3.3-3.8,5-5.3c4.5-4.2,10.2-5.4,16.1-6.2c9.8-1.3,19.6-1.3,29.4,0.1c2.3,0.3,4.5,1.1,6.7,1.9
		c-10-2.3-20.2-1.7-30.3-1.1c-4,0.2-8.1,0.8-12,1.6c-5.2,1-9.4,3.9-12.9,7.7c-0.4,0.5-0.8,0.9-1.3,1.4C57.6,71.1,57.5,71,56.9,71z"
		/>
	<path d="M34.6,146.9c-0.2-0.1-0.3-0.1-0.3-0.2c-1.4-3.6-1.4-3.6-5.2-2.5c-0.6,0.2-1.2,0.2-2,0.3c0.9-4.4-0.3-9.3,4.5-12.2
		c1.1,1.4,1.7,2.7,1.3,4.6c-0.3,1.2-0.3,2.5-0.1,3.7c0.1,0.5,0.7,1.1,1.2,1.4C35.7,143.3,36,145,34.6,146.9z"/>
</g>
</svg>
